{
  "accessors": [
    {
      "bufferView": 2,
      "componentType": 5126,
      "count": 961,
      "max": [
        0.5,
        -0.012995367869734764,
        0.5
      ],
      "min": [
        -0.5,
        -0.078745879232883453,
        -0.5
      ],
      "type": "VEC3"
    },
    {
      "bufferView": 2,
      "byteOffset": 11532,
      "componentType": 5126,
      "count": 961,
      "max": [
        0.48970192670822144,
        1,
        0.46344840526580811
      ],
      "min": [
        -0.4060673713684082,
        0.83376806974411011,
        -0.50352215766906738
      ],
      "type": "VEC3"
    },
    {
      "bufferView": 3,
      "componentType": 5126,
      "count": 961,
      "max": [
        1,
        0.40625029802322388,
        0.11245443671941757,
        1
      ],
      "min": [
        0.87176221609115601,
        -0.48992186784744263,
        -0.040582813322544098,
        1
      ],
      "type": "VEC4"
    },
    {
      "bufferView": 1,
      "componentType": 5126,
      "count": 961,
      "max": [
        1,
        1
      ],
      "min": [
        0,
        0
      ],
      "type": "VEC2"
    },
    {
      "bufferView": 0,
      "componentType": 5125,
      "count": 5400,
      "max": [
        960
      ],
      "min": [
        0
      ],
      "type": "SCALAR"
    }
  ],
  "asset": {
    "extras": {
      "author": "stormk90 (https://sketchfab.com/stormk90)",
      "license": "CC-BY-NC-4.0 (http://creativecommons.org/licenses/by-nc/4.0/)",
      "source": "https://sketchfab.com/3d-models/low-poly-floor-fa21f9c02d82413fb91f3cf24eb9d2d8",
      "title": "Low poly floor"
    },
    "generator": "Sketchfab-6.91.0",
    "version": "2.0"
  },
  "bufferViews": [
    {
      "buffer": 0,
      "byteLength": 21600,
      "byteOffset": 0,
      "name": "floatBufferViews",
      "target": 34963
    },
    {
      "buffer": 0,
      "byteLength": 7688,
      "byteOffset": 21600,
      "byteStride": 8,
      "name": "floatBufferViews",
      "target": 34962
    },
    {
      "buffer": 0,
      "byteLength": 23064,
      "byteOffset": 29288,
      "byteStride": 12,
      "name": "floatBufferViews",
      "target": 34962
    },
    {
      "buffer": 0,
      "byteLength": 15376,
      "byteOffset": 52352,
      "byteStride": 16,
      "name": "floatBufferViews",
      "target": 34962
    }
  ],
  "buffers": [
    {
      "byteLength": 67728,
      "uri": "scene.bin"
    }
  ],
  "images": [
    {
      "uri": "textures/dx11Shader2_baseColor.png"
    },
    {
      "uri": "textures/dx11Shader2_normal.png"
    }
  ],
  "materials": [
    {
      "doubleSided": true,
      "name": "dx11Shader2",
      "normalTexture": {
        "index": 1,
        "scale": 1,
        "texCoord": 0
      },
      "pbrMetallicRoughness": {
        "baseColorFactor": [
          1,
          1,
          1,
          1
        ],
        "baseColorTexture": {
          "index": 0,
          "texCoord": 0
        },
        "metallicFactor": 0,
        "roughnessFactor": 0.59999999999999998
      }
    }
  ],
  "meshes": [
    {
      "name": "pPlane1_dx11Shader2_0",
      "primitives": [
        {
          "attributes": {
            "NORMAL": 1,
            "POSITION": 0,
            "TANGENT": 2,
            "TEXCOORD_0": 3
          },
          "indices": 4,
          "material": 0,
          "mode": 4
        }
      ]
    }
  ],
  "nodes": [
    {
      "children": [
        1
      ],
      "name": "RootNode (gltf orientation matrix)",
      "rotation": [
        -0.70710678118654746,
        -0,
        -0,
        0.70710678118654757
      ]
    },
    {
      "children": [
        2
      ],
      "name": "RootNode (model correction matrix)"
    },
    {
      "children": [
        3
      ],
      "matrix": [
        1,
        0,
        0,
        0,
        0,
        0,
        1,
        0,
        0,
        -1,
        0,
        0,
        0,
        0,
        0,
        1
      ],
      "name": "2d0b3562357a44dbad3daac127adf0f8.fbx"
    },
    {
      "children": [
        4
      ],
      "name": "RootNode"
    },
    {
      "children": [
        5
      ],
      "matrix": [
        1.9342552423477173,
        0,
        0,
        0,
        0,
        4.4184788126228893e-16,
        1.9899059534072876,
        0,
        0,
        -1.9094901084899902,
        4.2399197674791505e-16,
        0,
        -0.96712762117385864,
        -0.95474499464035034,
        1.7763568394002505e-15,
        1
      ],
      "name": "pPlane1"
    },
    {
      "mesh": 0,
      "name": "pPlane1_dx11Shader2_0"
    }
  ],
  "samplers": [
    {
      "magFilter": 9729,
      "minFilter": 9987,
      "wrapS": 10497,
      "wrapT": 10497
    }
  ],
  "scene": 0,
  "scenes": [
    {
      "name": "OSG_Scene",
      "nodes": [
        0
      ]
    }
  ],
  "textures": [
    {
      "sampler": 0,
      "source": 0
    },
    {
      "sampler": 0,
      "source": 1
    }
  ]
}

