{
  "accessors": [
    {
      "bufferView": 2,
      "componentType": 5126,
      "count": 4,
      "max": [
        167.02890014648438,
        167.02890014648438,
        0
      ],
      "min": [
        -167.02890014648438,
        -167.02890014648438,
        0
      ],
      "type": "VEC3"
    },
    {
      "bufferView": 2,
      "byteOffset": 48,
      "componentType": 5126,
      "count": 4,
      "max": [
        0,
        0,
        1
      ],
      "min": [
        0,
        0,
        1
      ],
      "type": "VEC3"
    },
    {
      "bufferView": 3,
      "componentType": 5126,
      "count": 4,
      "max": [
        1,
        2.3841863594498136e-07,
        0,
        1
      ],
      "min": [
        1,
        1.8270841906087298e-07,
        0,
        1
      ],
      "type": "VEC4"
    },
    {
      "bufferView": 1,
      "componentType": 5126,
      "count": 4,
      "max": [
        1,
        1
      ],
      "min": [
        2.9802322387695312e-08,
        2.9802322387695312e-08
      ],
      "type": "VEC2"
    },
    {
      "bufferView": 0,
      "componentType": 5125,
      "count": 6,
      "max": [
        3
      ],
      "min": [
        0
      ],
      "type": "SCALAR"
    },
    {
      "bufferView": 2,
      "byteOffset": 96,
      "componentType": 5126,
      "count": 632,
      "max": [
        80,
        71.000015258789062,
        35.388343811035156
      ],
      "min": [
        -80,
        -57.32470703125,
        0.010603014379739761
      ],
      "type": "VEC3"
    },
    {
      "bufferView": 2,
      "byteOffset": 7680,
      "componentType": 5126,
      "count": 632,
      "max": [
        1,
        1,
        1
      ],
      "min": [
        -1,
        -1,
        -1
      ],
      "type": "VEC3"
    },
    {
      "bufferView": 3,
      "byteOffset": 64,
      "componentType": 5126,
      "count": 632,
      "max": [
        1,
        0.99999994039535522,
        1,
        1
      ],
      "min": [
        -1,
        -1,
        -1,
        1
      ],
      "type": "VEC4"
    },
    {
      "bufferView": 1,
      "byteOffset": 32,
      "componentType": 5126,
      "count": 632,
      "max": [
        1.88796067237854,
        1.847407341003418
      ],
      "min": [
        -1.128369927406311,
        -1.1271685361862183
      ],
      "type": "VEC2"
    },
    {
      "bufferView": 1,
      "byteOffset": 5088,
      "componentType": 5126,
      "count": 632,
      "max": [
        0.92987275123596191,
        0.91913753747940063
      ],
      "min": [
        0.00050000002374872565,
        0.00050000002374872565
      ],
      "type": "VEC2"
    },
    {
      "bufferView": 0,
      "byteOffset": 24,
      "componentType": 5125,
      "count": 1944,
      "max": [
        631
      ],
      "min": [
        0
      ],
      "type": "SCALAR"
    },
    {
      "bufferView": 2,
      "byteOffset": 15264,
      "componentType": 5126,
      "count": 952,
      "max": [
        50.318935394287109,
        68.600021362304688,
        34.012100219726562
      ],
      "min": [
        -49.990699768066406,
        -55.012733459472656,
        2.4105997085571289
      ],
      "type": "VEC3"
    },
    {
      "bufferView": 2,
      "byteOffset": 26688,
      "componentType": 5126,
      "count": 952,
      "max": [
        1,
        1,
        1
      ],
      "min": [
        -1,
        -1,
        -1
      ],
      "type": "VEC3"
    },
    {
      "bufferView": 3,
      "byteOffset": 10176,
      "componentType": 5126,
      "count": 952,
      "max": [
        1,
        1,
        1,
        1
      ],
      "min": [
        -1,
        -1,
        -1,
        1
      ],
      "type": "VEC4"
    },
    {
      "bufferView": 1,
      "byteOffset": 10144,
      "componentType": 5126,
      "count": 952,
      "max": [
        2.127626895904541,
        2.126105785369873
      ],
      "min": [
        -0.8541024923324585,
        -1.1271685361862183
      ],
      "type": "VEC2"
    },
    {
      "bufferView": 1,
      "byteOffset": 17760,
      "componentType": 5126,
      "count": 952,
      "max": [
        0.99950003623962402,
        0.98622798919677734
      ],
      "min": [
        0.37533143162727356,
        0.00050000002374872565
      ],
      "type": "VEC2"
    },
    {
      "bufferView": 0,
      "byteOffset": 7800,
      "componentType": 5125,
      "count": 2628,
      "max": [
        951
      ],
      "min": [
        0
      ],
      "type": "SCALAR"
    },
    {
      "bufferView": 2,
      "byteOffset": 38112,
      "componentType": 5126,
      "count": 1224,
      "max": [
        80,
        68.600021362304688,
        34.012096405029297
      ],
      "min": [
        -80.000007629394531,
        -55.012733459472656,
        2.410599946975708
      ],
      "type": "VEC3"
    },
    {
      "bufferView": 2,
      "byteOffset": 52800,
      "componentType": 5126,
      "count": 1224,
      "max": [
        1,
        1,
        1
      ],
      "min": [
        -1,
        -1,
        -1
      ],
      "type": "VEC3"
    },
    {
      "bufferView": 3,
      "byteOffset": 25408,
      "componentType": 5126,
      "count": 1224,
      "max": [
        1,
        1,
        1,
        1
      ],
      "min": [
        -1,
        -1,
        -1,
        1
      ],
      "type": "VEC4"
    },
    {
      "bufferView": 1,
      "byteOffset": 25376,
      "componentType": 5126,
      "count": 1224,
      "max": [
        2.0192694664001465,
        7.9031009674072266
      ],
      "min": [
        -0.6251215934753418,
        -0.84982693195343018
      ],
      "type": "VEC2"
    },
    {
      "bufferView": 1,
      "byteOffset": 35168,
      "componentType": 5126,
      "count": 1224,
      "max": [
        0.99399995803833008,
        0.97555422782897949
      ],
      "min": [
        0.39875844120979309,
        0.18323034048080444
      ],
      "type": "VEC2"
    },
    {
      "bufferView": 1,
      "byteOffset": 44960,
      "componentType": 5126,
      "count": 1224,
      "max": [
        0.99399995803833008,
        0.97555422782897949
      ],
      "min": [
        0.39875844120979309,
        0.18323034048080444
      ],
      "type": "VEC2"
    },
    {
      "bufferView": 0,
      "byteOffset": 18312,
      "componentType": 5125,
      "count": 3204,
      "max": [
        1223
      ],
      "min": [
        0
      ],
      "type": "SCALAR"
    },
    {
      "bufferView": 2,
      "byteOffset": 67488,
      "componentType": 5126,
      "count": 696,
      "max": [
        50.318935394287109,
        40.858314514160156,
        34.012096405029297
      ],
      "min": [
        -80.000007629394531,
        -55.012733459472656,
        2.4106025695800781
      ],
      "type": "VEC3"
    },
    {
      "bufferView": 2,
      "byteOffset": 75840,
      "componentType": 5126,
      "count": 696,
      "max": [
        1,
        1,
        1
      ],
      "min": [
        -1,
        -1,
        -1
      ],
      "type": "VEC3"
    },
    {
      "bufferView": 3,
      "byteOffset": 44992,
      "componentType": 5126,
      "count": 696,
      "max": [
        1,
        0.69946581125259399,
        1,
        1
      ],
      "min": [
        -1,
        -1,
        -1,
        1
      ],
      "type": "VEC4"
    },
    {
      "bufferView": 1,
      "byteOffset": 54752,
      "componentType": 5126,
      "count": 696,
      "max": [
        2.1083669662475586,
        2.1261055469512939
      ],
      "min": [
        -1.128369927406311,
        -1.1271685361862183
      ],
      "type": "VEC2"
    },
    {
      "bufferView": 1,
      "byteOffset": 60320,
      "componentType": 5126,
      "count": 696,
      "max": [
        0.98902183771133423,
        0.87077414989471436
      ],
      "min": [
        0.39875844120979309,
        0.38001689314842224
      ],
      "type": "VEC2"
    },
    {
      "bufferView": 0,
      "byteOffset": 31128,
      "componentType": 5125,
      "count": 1944,
      "max": [
        695
      ],
      "min": [
        0
      ],
      "type": "SCALAR"
    },
    {
      "bufferView": 2,
      "byteOffset": 84192,
      "componentType": 5126,
      "count": 2346,
      "max": [
        64.656051635742188,
        -57.265419006347656,
        30.301210403442383
      ],
      "min": [
        -64.656044006347656,
        -70.044395446777344,
        2.5178298950195312
      ],
      "type": "VEC3"
    },
    {
      "bufferView": 2,
      "byteOffset": 112344,
      "componentType": 5126,
      "count": 2346,
      "max": [
        1,
        1,
        1
      ],
      "min": [
        -1,
        -1,
        -1
      ],
      "type": "VEC3"
    },
    {
      "bufferView": 3,
      "byteOffset": 56128,
      "componentType": 5126,
      "count": 2346,
      "max": [
        1,
        1,
        1,
        1
      ],
      "min": [
        -1,
        -1,
        -1,
        -1
      ],
      "type": "VEC4"
    },
    {
      "bufferView": 1,
      "byteOffset": 65888,
      "componentType": 5126,
      "count": 2346,
      "max": [
        0.93281704187393188,
        0.97448062896728516
      ],
      "min": [
        0.00050000002374872565,
        0.00050000002374872565
      ],
      "type": "VEC2"
    },
    {
      "bufferView": 1,
      "byteOffset": 84656,
      "componentType": 5126,
      "count": 2346,
      "max": [
        1.8652575016021729,
        2.1207923889160156
      ],
      "min": [
        -1.128369927406311,
        -1.1271685361862183
      ],
      "type": "VEC2"
    },
    {
      "bufferView": 0,
      "byteOffset": 38904,
      "componentType": 5125,
      "count": 6588,
      "max": [
        2345
      ],
      "min": [
        0
      ],
      "type": "SCALAR"
    },
    {
      "bufferView": 2,
      "byteOffset": 140496,
      "componentType": 5126,
      "count": 480,
      "max": [
        36.744407653808594,
        68.6783447265625,
        33.78424072265625
      ],
      "min": [
        -79.582412719726562,
        -55.016834259033203,
        32.525123596191406
      ],
      "type": "VEC3"
    },
    {
      "bufferView": 2,
      "byteOffset": 146256,
      "componentType": 5126,
      "count": 480,
      "max": [
        1,
        1,
        1
      ],
      "min": [
        -1,
        -1,
        -1
      ],
      "type": "VEC3"
    },
    {
      "bufferView": 3,
      "byteOffset": 93664,
      "componentType": 5126,
      "count": 480,
      "max": [
        1,
        1,
        1,
        1
      ],
      "min": [
        -1,
        -1,
        -1,
        1
      ],
      "type": "VEC4"
    },
    {
      "bufferView": 1,
      "byteOffset": 103424,
      "componentType": 5126,
      "count": 480,
      "max": [
        0.99738961458206177,
        0.40071564912796021
      ],
      "min": [
        0.53463494777679443,
        0.17385956645011902
      ],
      "type": "VEC2"
    },
    {
      "bufferView": 1,
      "byteOffset": 107264,
      "componentType": 5126,
      "count": 480,
      "max": [
        2.1283702850341797,
        2.1150772571563721
      ],
      "min": [
        -1.0238925218582153,
        -1.0994235277175903
      ],
      "type": "VEC2"
    },
    {
      "bufferView": 0,
      "byteOffset": 65256,
      "componentType": 5125,
      "count": 720,
      "max": [
        479
      ],
      "min": [
        0
      ],
      "type": "SCALAR"
    },
    {
      "bufferView": 4,
      "componentType": 5126,
      "count": 1,
      "max": [
        0
      ],
      "min": [
        0
      ],
      "type": "SCALAR"
    },
    {
      "bufferView": 5,
      "componentType": 5126,
      "count": 1,
      "max": [
        6.6579026736235392e-08,
        0,
        0,
        1
      ],
      "min": [
        6.6579026736235392e-08,
        0,
        0,
        1
      ],
      "type": "VEC4"
    }
  ],
  "animations": [
    {
      "channels": [
        {
          "sampler": 0,
          "target": {
            "node": 7,
            "path": "rotation"
          }
        }
      ],
      "name": "Take 001",
      "samplers": [
        {
          "input": 42,
          "interpolation": "LINEAR",
          "output": 43
        }
      ]
    }
  ],
  "asset": {
    "extras": {
      "author": "MADE.COM (https://sketchfab.com/made-it)",
      "license": "CC-BY-NC-4.0 (http://creativecommons.org/licenses/by-nc/4.0/)",
      "source": "https://sketchfab.com/3d-models/fowler-large-shelving-unit-multicolour-oak-c77a1ae987cc4ad994cdafc2d94fcad0",
      "title": "Fowler Large Shelving Unit, Multicolour Oak"
    },
    "generator": "Sketchfab-4.46.0",
    "version": "2.0"
  },
  "bufferViews": [
    {
      "buffer": 0,
      "byteLength": 68136,
      "byteOffset": 0,
      "name": "floatBufferViews",
      "target": 34963
    },
    {
      "buffer": 0,
      "byteLength": 111104,
      "byteOffset": 68136,
      "byteStride": 8,
      "name": "floatBufferViews",
      "target": 34962
    },
    {
      "buffer": 0,
      "byteLength": 152016,
      "byteOffset": 179240,
      "byteStride": 12,
      "name": "floatBufferViews",
      "target": 34962
    },
    {
      "buffer": 0,
      "byteLength": 101344,
      "byteOffset": 331256,
      "byteStride": 16,
      "name": "floatBufferViews",
      "target": 34962
    },
    {
      "buffer": 0,
      "byteLength": 4,
      "byteOffset": 432600,
      "name": "floatBufferViews"
    },
    {
      "buffer": 0,
      "byteLength": 16,
      "byteOffset": 432604,
      "byteStride": 16,
      "name": "floatBufferViews"
    }
  ],
  "buffers": [
    {
      "byteLength": 432620,
      "uri": "scene.bin"
    }
  ],
  "images": [
    {
      "uri": "textures/WOOD_baseColor.jpeg"
    },
    {
      "uri": "textures/WOOD_metallicRoughness.png"
    },
    {
      "uri": "textures/FLOOR_baseColor.png"
    },
    {
      "uri": "textures/GREY_MINT_metallicRoughness.png"
    },
    {
      "uri": "textures/GREY_metallicRoughness.png"
    },
    {
      "uri": "textures/Material_157_Slot_6_metallicRoughness.png"
    },
    {
      "uri": "textures/MUTED_GREY_metallicRoughness.png"
    }
  ],
  "materials": [
    {
      "alphaMode": "BLEND",
      "doubleSided": true,
      "emissiveFactor": [
        0,
        0,
        0
      ],
      "name": "FLOOR",
      "pbrMetallicRoughness": {
        "baseColorFactor": [
          0,
          0,
          0,
          0.70903201220000001
        ],
        "baseColorTexture": {
          "index": 2,
          "texCoord": 0
        },
        "metallicFactor": 0,
        "roughnessFactor": 0.1236661585
      }
    },
    {
      "doubleSided": true,
      "emissiveFactor": [
        0,
        0,
        0
      ],
      "name": "GREY",
      "occlusionTexture": {
        "index": 4,
        "strength": 0.74561737800000005,
        "texCoord": 1
      },
      "pbrMetallicRoughness": {
        "baseColorFactor": [
          0.3002697829,
          0.3002697829,
          0.3002697829,
          1
        ],
        "metallicFactor": 0,
        "metallicRoughnessTexture": {
          "index": 4,
          "texCoord": 0
        },
        "roughnessFactor": 0.42244664630000001
      }
    },
    {
      "doubleSided": true,
      "emissiveFactor": [
        0,
        0,
        0
      ],
      "name": "GREY_MINT",
      "occlusionTexture": {
        "index": 3,
        "strength": 0.39195884149999999,
        "texCoord": 1
      },
      "pbrMetallicRoughness": {
        "baseColorFactor": [
          0.3134156562,
          0.43425069249999998,
          0.33236420020000002,
          1
        ],
        "metallicFactor": 0,
        "metallicRoughnessTexture": {
          "index": 3,
          "texCoord": 0
        },
        "roughnessFactor": 0.28830030490000003
      }
    },
    {
      "doubleSided": true,
      "emissiveFactor": [
        0,
        0,
        0
      ],
      "name": "WOOD",
      "occlusionTexture": {
        "index": 1,
        "strength": 0.59317835370000005,
        "texCoord": 1
      },
      "pbrMetallicRoughness": {
        "baseColorFactor": [
          1,
          1,
          1,
          1
        ],
        "baseColorTexture": {
          "index": 0,
          "texCoord": 0
        },
        "metallicFactor": 0,
        "metallicRoughnessTexture": {
          "index": 1,
          "texCoord": 0
        },
        "roughnessFactor": 0.38586128050000001
      }
    },
    {
      "doubleSided": true,
      "emissiveFactor": [
        0,
        0,
        0
      ],
      "name": "MUTED_GREY",
      "occlusionTexture": {
        "index": 6,
        "strength": 0.44073932929999998,
        "texCoord": 1
      },
      "pbrMetallicRoughness": {
        "baseColorFactor": [
          0.81036995099999998,
          0.81036995099999998,
          0.81036995099999998,
          1
        ],
        "metallicFactor": 0,
        "metallicRoughnessTexture": {
          "index": 6,
          "texCoord": 0
        },
        "roughnessFactor": 0.3187881098
      }
    },
    {
      "doubleSided": true,
      "emissiveFactor": [
        0,
        0,
        0
      ],
      "name": "Material_157_Slot_6",
      "occlusionTexture": {
        "index": 5,
        "strength": 1,
        "texCoord": 0
      },
      "pbrMetallicRoughness": {
        "baseColorFactor": [
          0,
          0,
          0,
          1
        ],
        "metallicFactor": 0,
        "metallicRoughnessTexture": {
          "index": 5,
          "texCoord": 0
        },
        "roughnessFactor": 0.26391006099999997
      }
    },
    {
      "doubleSided": true,
      "emissiveFactor": [
        0,
        0,
        0
      ],
      "name": "METAL",
      "pbrMetallicRoughness": {
        "baseColorFactor": [
          0.22745099999999999,
          0.22745099999999999,
          0.22745099999999999,
          1
        ],
        "metallicFactor": 0.77000762199999995,
        "roughnessFactor": 0.59317835370000005
      }
    }
  ],
  "meshes": [
    {
      "name": "Plane001_FLOOR_0",
      "primitives": [
        {
          "attributes": {
            "NORMAL": 1,
            "POSITION": 0,
            "TANGENT": 2,
            "TEXCOORD_0": 3
          },
          "indices": 4,
          "material": 0,
          "mode": 4
        }
      ]
    },
    {
      "name": "Fowler_Large_Shelving_Unit_GREY_0",
      "primitives": [
        {
          "attributes": {
            "NORMAL": 6,
            "POSITION": 5,
            "TANGENT": 7,
            "TEXCOORD_0": 8,
            "TEXCOORD_1": 9
          },
          "indices": 10,
          "material": 1,
          "mode": 4
        }
      ]
    },
    {
      "name": "Fowler_Large_Shelving_Unit_GREY_MINT_0",
      "primitives": [
        {
          "attributes": {
            "NORMAL": 12,
            "POSITION": 11,
            "TANGENT": 13,
            "TEXCOORD_0": 14,
            "TEXCOORD_1": 15
          },
          "indices": 16,
          "material": 2,
          "mode": 4
        }
      ]
    },
    {
      "name": "Fowler_Large_Shelving_Unit_WOOD_0",
      "primitives": [
        {
          "attributes": {
            "NORMAL": 18,
            "POSITION": 17,
            "TANGENT": 19,
            "TEXCOORD_0": 20,
            "TEXCOORD_1": 21,
            "TEXCOORD_2": 22
          },
          "indices": 23,
          "material": 3,
          "mode": 4
        }
      ]
    },
    {
      "name": "Fowler_Large_Shelving_Unit_MUTED_GREY_0",
      "primitives": [
        {
          "attributes": {
            "NORMAL": 25,
            "POSITION": 24,
            "TANGENT": 26,
            "TEXCOORD_0": 27,
            "TEXCOORD_1": 28
          },
          "indices": 29,
          "material": 4,
          "mode": 4
        }
      ]
    },
    {
      "name": "Fowler_Large_Shelving_Unit_Material #157 Slot #6_0",
      "primitives": [
        {
          "attributes": {
            "NORMAL": 31,
            "POSITION": 30,
            "TANGENT": 32,
            "TEXCOORD_0": 33,
            "TEXCOORD_1": 34
          },
          "indices": 35,
          "material": 5,
          "mode": 4
        }
      ]
    },
    {
      "name": "Fowler_Large_Shelving_Unit_METAL_0",
      "primitives": [
        {
          "attributes": {
            "NORMAL": 37,
            "POSITION": 36,
            "TANGENT": 38,
            "TEXCOORD_0": 39,
            "TEXCOORD_1": 40
          },
          "indices": 41,
          "material": 6,
          "mode": 4
        }
      ]
    }
  ],
  "nodes": [
    {
      "children": [
        1
      ],
      "name": "RootNode (gltf orientation matrix)",
      "rotation": [
        -0.70710678118654746,
        -0,
        -0,
        0.70710678118654757
      ]
    },
    {
      "children": [
        2
      ],
      "name": "RootNode (model correction matrix)"
    },
    {
      "children": [
        3
      ],
      "matrix": [
        1,
        0,
        0,
        0,
        0,
        0,
        1,
        0,
        0,
        -1,
        0,
        0,
        0,
        0,
        0,
        1
      ],
      "name": "011ddfe18e9f46f298272ee1d2964f65.fbx"
    },
    {
      "children": [
        4
      ],
      "name": ""
    },
    {
      "children": [
        5,
        7
      ],
      "name": "RootNode"
    },
    {
      "children": [
        6
      ],
      "name": "Plane001",
      "rotation": [
        -0.7071068286895752,
        -0,
        0,
        0.7071068286895752
      ]
    },
    {
      "mesh": 0,
      "name": "Plane001_FLOOR_0"
    },
    {
      "children": [
        8
      ],
      "name": "Fowler_Large_Shelving_Unit",
      "rotation": [
        8.1460342471473268e-08,
        0,
        0,
        1
      ],
      "translation": [
        0,
        0.10000000149011612,
        0
      ]
    },
    {
      "children": [
        9,
        10,
        11,
        12,
        13,
        14
      ],
      "matrix": [
        1,
        0,
        -0,
        0,
        0,
        1,
        0,
        0,
        0,
        0,
        1,
        0,
        3.814697265625e-06,
        69.970054626464844,
        -17.699485778808594,
        1
      ],
      "name": ""
    },
    {
      "mesh": 1,
      "name": "Fowler_Large_Shelving_Unit_GREY_0"
    },
    {
      "mesh": 2,
      "name": "Fowler_Large_Shelving_Unit_GREY_MINT_0"
    },
    {
      "mesh": 3,
      "name": "Fowler_Large_Shelving_Unit_WOOD_0"
    },
    {
      "mesh": 4,
      "name": "Fowler_Large_Shelving_Unit_MUTED_GREY_0"
    },
    {
      "mesh": 5,
      "name": "Fowler_Large_Shelving_Unit_Material #157 Slot #6_0"
    },
    {
      "mesh": 6,
      "name": "Fowler_Large_Shelving_Unit_METAL_0"
    }
  ],
  "samplers": [
    {
      "magFilter": 9729,
      "minFilter": 9987,
      "wrapS": 10497,
      "wrapT": 10497
    }
  ],
  "scene": 0,
  "scenes": [
    {
      "name": "OSG_Scene",
      "nodes": [
        0
      ]
    }
  ],
  "textures": [
    {
      "sampler": 0,
      "source": 0
    },
    {
      "sampler": 0,
      "source": 1
    },
    {
      "sampler": 0,
      "source": 2
    },
    {
      "sampler": 0,
      "source": 3
    },
    {
      "sampler": 0,
      "source": 4
    },
    {
      "sampler": 0,
      "source": 5
    },
    {
      "sampler": 0,
      "source": 6
    }
  ]
}

